PathFileType	4	(X/Y/Z)	RBDS07static.trc
DataRate	CameraRate	NumFrames	NumMarkers	Units	OrigDataRate	OrigDataStartFrame	OrigNumFrames
150.000000	150.000000	4	48	mm	150.000000	93	150
Frame#	Time	L.Ankle			L.Ankle.Medial			L.ASIS			L.GTR			L.Heel.Bottom			L.Heel.Lateral			L.Heel.Top			L.HF			L.Iliac.Crest			L.Knee			L.Knee.Medial			L.MT1			L.MT2			L.MT5			L.PSIS			L.Shank.Bottom.Lateral			L.Shank.Bottom.Medial			L.Shank.Top.Lateral			L.Shank.Top.Medial			L.Thigh.Bottom.Lateral			L.Thigh.Bottom.Medial			L.Thigh.Top.Lateral			L.Thigh.Top.Medial			L.TT			R.Ankle			R.Ankle.Medial			R.ASIS			R.GTR			R.Heel.Bottom			R.Heel.Lateral			R.Heel.Top			R.HF			R.Iliac.Crest			R.Knee			R.Knee.Medial			R.MT1			R.MT2			R.MT5			R.PSIS			R.Shank.Bottom.Lateral			R.Shank.Bottom.Medial			R.Shank.Top.Lateral			R.Shank.Top.Medial			R.Thigh.Bottom.Lateral			R.Thigh.Bottom.Medial			R.Thigh.Top.Lateral			R.Thigh.Top.Medial			R.TT			
		X1	Y1	Z1	X2	Y2	Z2	X3	Y3	Z3	X4	Y4	Z4	X5	Y5	Z5	X6	Y6	Z6	X7	Y7	Z7	X8	Y8	Z8	X9	Y9	Z9	X10	Y10	Z10	X11	Y11	Z11	X12	Y12	Z12	X13	Y13	Z13	X14	Y14	Z14	X15	Y15	Z15	X16	Y16	Z16	X17	Y17	Z17	X18	Y18	Z18	X19	Y19	Z19	X20	Y20	Z20	X21	Y21	Z21	X22	Y22	Z22	X23	Y23	Z23	X24	Y24	Z24	X25	Y25	Z25	X26	Y26	Z26	X27	Y27	Z27	X28	Y28	Z28	X29	Y29	Z29	X30	Y30	Z30	X31	Y31	Z31	X32	Y32	Z32	X33	Y33	Z33	X34	Y34	Z34	X35	Y35	Z35	X36	Y36	Z36	X37	Y37	Z37	X38	Y38	Z38	X39	Y39	Z39	X40	Y40	Z40	X41	Y41	Z41	X42	Y42	Z42	X43	Y43	Z43	X44	Y44	Z44	X45	Y45	Z45	X46	Y46	Z46	X47	Y47	Z47	X48	Y48	Z48	

94	0.62	696.2947998046875	113.3655776977539	1034.676879882813	718.7517700195313	124.879768371582	1117.465209960938	841.8258056640625	1083.579467773438	1089.754272460938	776.250244140625	984.8316040039063	1046.612548828125	637.3936157226563	39.61456298828125	1080.104858398438	665.4334106445313	61.30434036254883	1038.889404296875	644.905517578125	87.53139495849609	1082.925170898438	695.5613403320313	502.2866516113281	1045.82470703125	780.3271484375	1132	1069.044067382813	704.5526733398438	560.7059936523438	1056.0478515625	714.0252685546875	537.41064453125	1173.166015625	854.3742065429688	56.05349731445313	1119.526000976563	858.1140747070313	71.62843322753906	1080.131591796875	828.4857788085938	50.47933959960938	1010.899108886719	681.1969604492188	1101.771484375	1180.21484375	689.1107788085938	202.6472930908203	1034.84423828125	646.4713745117188	196.7907867431641	1068.522094726563	674.0474243164063	281.3021850585938	1027.791015625	632.2539672851563	276.5452270507813	1060.692016601563	707.5787353515625	703.9989624023438	1045.19970703125	661.6090698242188	711.2410888671875	1102.162231445313	717.258544921875	813.9151611328125	1041.890869140625	677.6943359375	820.1050415039063	1099.997192382813	754.8399047851563	467.3025512695313	1094.7490234375	702.6498413085938	107.6447143554688	1411.638671875	721.5792846679688	130.960693359375	1328.829223632813	848.7785034179688	1084.354248046875	1347.940307617188	796.0068359375	984.9603881835938	1392.899780273438	636.2334594726563	40.18757247924805	1370.216430664063	659.958740234375	59.70722961425781	1408.912841796875	643.6015014648438	89.74806213378906	1369.520263671875	723.9288940429688	502.6623840332031	1414.222290039063	782.1429443359375	1136.570678710938	1369.59375	732.5578002929688	559.8604736328125	1404.836059570313	732.4779663085938	541.8572998046875	1288.056884765625	857.1456298828125	61.17053604125977	1328.709228515625	858.0741577148438	74.04196166992188	1369.902587890625	832.7509765625	54.64582824707031	1433.015869140625	688.475341796875	1106.444458007813	1270.064208984375	693.4723510742188	202.7658386230469	1417.296752929688	652.9544067382813	209.3428344726563	1385.270751953125	693.9163208007813	286.5341186523438	1430.529907226563	649.9738159179688	289.1814270019531	1399.229736328125	764.150390625	668.1106567382813	1412.444458007813	697.3582763671875	682.0047607421875	1384.62109375	782.5452270507813	777.0061645507813	1419.861450195313	719.06884765625	789.25732421875	1395.04736328125	777.869384765625	469.81103515625	1364.8779296875	
95	0.6266666666666667	696.2980346679688	113.3632049560547	1034.689575195313	718.7431030273438	124.8772048950195	1117.469970703125	841.8134155273438	1083.58740234375	1089.758178710938	776.2416381835938	984.830322265625	1046.621826171875	637.3888549804688	39.60454177856445	1080.094848632813	665.4420166015625	61.29820251464844	1038.876831054688	644.9013061523438	87.53059387207031	1082.93212890625	695.556396484375	502.2796630859375	1045.827270507813	780.3228759765625	1131.99853515625	1069.049194335938	704.544921875	560.7029418945313	1056.04638671875	714.017822265625	537.4118041992188	1173.160888671875	854.3815307617188	56.06441116333008	1119.532836914063	858.1110229492188	71.62919616699219	1080.134399414063	828.479736328125	50.48741149902344	1010.901611328125	681.1792602539063	1101.772583007813	1180.205322265625	689.1099853515625	202.6469573974609	1034.844604492188	646.471923828125	196.7837829589844	1068.525634765625	674.0431518554688	281.3052978515625	1027.79541015625	632.254150390625	276.5409851074219	1060.689575195313	707.5556640625	703.9969482421875	1045.204956054688	661.606201171875	711.231201171875	1102.155029296875	717.2439575195313	813.9130859375	1041.893188476563	677.6825561523438	820.097412109375	1100.009521484375	754.8556518554688	467.3372497558594	1094.758056640625	702.6459350585938	107.6427688598633	1411.6376953125	721.5745239257813	130.9666290283203	1328.8349609375	848.7553100585938	1084.357177734375	1347.958740234375	795.9918823242188	984.9669189453125	1392.908081054688	636.2392578125	40.196533203125	1370.215698242188	659.957763671875	59.6998405456543	1408.922973632813	643.5925903320313	89.75260925292969	1369.521606445313	723.9293212890625	502.6576843261719	1414.234252929688	782.1280517578125	1136.572387695313	1369.592651367188	732.5491333007813	559.85546875	1404.841918945313	732.46484375	541.8485107421875	1288.059814453125	857.140380859375	61.16020584106445	1328.712768554688	858.0811767578125	74.03858184814453	1369.9169921875	832.7492065429688	54.64054107666016	1433.028564453125	688.4561767578125	1106.441528320313	1270.069702148438	693.4661254882813	202.7620086669922	1417.30029296875	652.95458984375	209.3401489257813	1385.275024414063	693.9070434570313	286.5380859375	1430.52685546875	649.9723510742188	289.18408203125	1399.23681640625	764.1423950195313	668.1180419921875	1412.457397460938	697.3405151367188	682.0081176757813	1384.619873046875	782.5363159179688	777.015625	1419.864013671875	719.0565185546875	789.258544921875	1395.063842773438	777.8524169921875	469.8103637695313	1364.88818359375	
96	0.6333333333333334	696.2980346679688	113.3590774536133	1034.677612304688	718.7413330078125	124.8691635131836	1117.472778320313	841.8065185546875	1083.587646484375	1089.774536132813	776.23046875	984.8353271484375	1046.624267578125	637.394775390625	39.61204528808594	1080.098266601563	665.4414672851563	61.30391311645508	1038.887329101563	644.9099731445313	87.53173828125	1082.928344726563	695.545654296875	502.27490234375	1045.829711914063	780.2933349609375	1131.998168945313	1069.04931640625	704.5353393554688	560.6956176757813	1056.052612304688	714.01025390625	537.4092407226563	1173.164428710938	854.3724975585938	56.05122375488281	1119.528076171875	858.114990234375	71.62287139892578	1080.13037109375	828.4779663085938	50.48235321044922	1010.901977539063	681.1664428710938	1101.776977539063	1180.217407226563	689.1080322265625	202.6443786621094	1034.84716796875	646.4757690429688	196.7815551757813	1068.5224609375	674.0439453125	281.2967529296875	1027.782104492188	632.2491455078125	276.552001953125	1060.686401367188	707.5712890625	703.9913330078125	1045.208862304688	661.600341796875	711.232177734375	1102.158813476563	717.2431030273438	813.9136352539063	1041.892211914063	677.6765747070313	820.0967407226563	1100.007568359375	754.8410034179688	467.3253479003906	1094.764038085938	702.6524047851563	107.6543579101563	1411.635375976563	721.5811767578125	130.9572296142578	1328.834350585938	848.7410888671875	1084.361694335938	1347.958740234375	795.9849853515625	984.970947265625	1392.908813476563	636.2330932617188	40.19482040405273	1370.206176757813	659.9690551757813	59.6912727355957	1408.916015625	643.5930786132813	89.75310516357422	1369.510375976563	723.9154052734375	502.6622314453125	1414.22705078125	782.1135864257813	1136.574096679688	1369.604248046875	732.5335083007813	559.8553466796875	1404.841552734375	732.4678955078125	541.8556518554688	1288.059448242188	857.1482543945313	61.1603889465332	1328.710693359375	858.07421875	74.04208374023438	1369.908813476563	832.752685546875	54.63642883300781	1433.015014648438	688.4444580078125	1106.4443359375	1270.067016601563	693.4689331054688	202.7652130126953	1417.286010742188	652.9497680664063	209.3344573974609	1385.261962890625	693.8998413085938	286.5342407226563	1430.529663085938	649.9616088867188	289.1886901855469	1399.226196289063	764.12646484375	668.1229858398438	1412.46435546875	697.3310546875	682.0025024414063	1384.616821289063	782.5169677734375	777.0094604492188	1419.868408203125	719.044189453125	789.2620239257813	1395.057250976563	777.8445434570313	469.8100280761719	1364.87451171875	
97	0.64	696.2921142578125	113.3638000488281	1034.688842773438	718.7463989257813	124.8789672851563	1117.469848632813	841.792236328125	1083.586547851563	1089.755981445313	776.223388671875	984.8416748046875	1046.633544921875	637.3897705078125	39.61557769775391	1080.0908203125	665.4373168945313	61.29939651489258	1038.88916015625	644.9072265625	87.53957366943359	1082.926879882813	695.532958984375	502.278076171875	1045.828979492188	780.2775268554688	1131.9921875	1069.050903320313	704.5275268554688	560.693359375	1056.0556640625	714.006103515625	537.4068603515625	1173.163940429688	854.371826171875	56.05728912353516	1119.531494140625	858.1036376953125	71.62574005126953	1080.138305664063	828.4788208007813	50.48412322998047	1010.901611328125	681.1544189453125	1101.775756835938	1180.213623046875	689.1068115234375	202.6443176269531	1034.848388671875	646.4722290039063	196.7836151123047	1068.523315429688	674.0425415039063	281.2992553710938	1027.797119140625	632.2507934570313	276.5435180664063	1060.691528320313	707.5557861328125	703.9876708984375	1045.205200195313	661.5853271484375	711.2340698242188	1102.152587890625	717.2299194335938	813.9111328125	1041.89697265625	677.6651611328125	820.0963745117188	1100.007446289063	754.8370971679688	467.3014831542969	1094.75390625	702.6406860351563	107.6343383789063	1411.632568359375	721.5912475585938	130.9647064208984	1328.832275390625	848.7230224609375	1084.366943359375	1347.965942382813	795.9616088867188	984.9674072265625	1392.915649414063	636.2322387695313	40.19218444824219	1370.215698242188	659.9569091796875	59.7088737487793	1408.922729492188	643.5849609375	89.74903106689453	1369.514770507813	723.907958984375	502.667236328125	1414.230224609375	782.0985107421875	1136.5712890625	1369.6064453125	732.526123046875	559.8546142578125	1404.845458984375	732.450927734375	541.8544311523438	1288.05810546875	857.1373901367188	61.16980361938477	1328.704345703125	858.0769653320313	74.04147338867188	1369.91845703125	832.7479858398438	54.64188003540039	1433.019775390625	688.42822265625	1106.43896484375	1270.078857421875	693.4584350585938	202.7694549560547	1417.294311523438	652.950927734375	209.3383483886719	1385.262084960938	693.8989868164063	286.5311584472656	1430.525390625	649.9675903320313	289.1791076660156	1399.223876953125	764.1129150390625	668.1138305664063	1412.453857421875	697.3182983398438	682.0037841796875	1384.619873046875	782.5020141601563	777.0155029296875	1419.869995117188	719.0315551757813	789.2572021484375	1395.064331054688	777.8482666015625	469.8125915527344	1364.887817382813	
